<svg xmlns="http://www.w3.org/2000/svg" xmlns:xlink="http://www.w3.org/1999/xlink" width="425" zoomAndPan="magnify" viewBox="0 0 318.75 147.750002" height="197" preserveAspectRatio="xMidYMid meet" version="1.0"><defs><g/><clipPath id="7754c8e75a"><path d="M 0.144531 0 L 282 0 L 282 147.5 L 0.144531 147.5 Z M 0.144531 0 " clip-rule="nonzero"/></clipPath><clipPath id="4ab6d546b7"><path d="M 0.144531 0 L 100.339844 0 L 100.339844 147.160156 L 0.144531 147.160156 Z M 0.144531 0 " clip-rule="nonzero"/></clipPath><clipPath id="5ff9becb52"><path d="M 50 45 L 281.667969 45 L 281.667969 102 L 50 102 Z M 50 45 " clip-rule="nonzero"/></clipPath><clipPath id="a86b52df6d"><path d="M 29 0.0429688 L 54 0.0429688 L 54 43 L 29 43 Z M 29 0.0429688 " clip-rule="nonzero"/></clipPath><clipPath id="3f6900a5a5"><rect x="0" width="232" y="0" height="57"/></clipPath><clipPath id="56d4107ef3"><rect x="0" width="162" y="0" height="21"/></clipPath><clipPath id="3e1c007696"><rect x="0" width="282" y="0" height="148"/></clipPath></defs><g clip-path="url(#7754c8e75a)"><g transform="matrix(1, 0, 0, 1, 0, 0.000000000000037039)"><g clip-path="url(#3e1c007696)"><g clip-path="url(#4ab6d546b7)"><path fill="#e3a72f" d="M 64.105469 0.0195312 L 82.96875 0.0195312 C 85.125 0.0195312 86.871094 1.761719 86.878906 3.921875 C 86.878906 3.933594 86.878906 3.945312 86.882812 3.957031 L 87.773438 16.75 C 87.792969 17.027344 87.988281 17.257812 88.253906 17.328125 C 92.320312 18.390625 96.210938 19.886719 99.875 21.765625 C 99.878906 21.765625 99.882812 21.765625 99.882812 21.769531 C 100.234375 21.949219 100.332031 22.40625 100.097656 22.71875 L 91.164062 34.480469 C 90.984375 34.714844 90.667969 34.796875 90.398438 34.679688 C 88.875 34.011719 87.300781 33.4375 85.691406 32.953125 C 83.628906 32.332031 81.5 31.867188 79.316406 31.570312 C 78.007812 31.390625 76.683594 31.269531 75.339844 31.214844 C 74.746094 31.1875 74.144531 31.175781 73.539062 31.175781 C 72.378906 31.175781 71.226562 31.222656 70.089844 31.316406 C 57.703125 32.316406 46.824219 38.664062 39.75 48.058594 C 34.402344 55.160156 31.230469 64 31.230469 73.582031 C 31.230469 97 50.171875 115.984375 73.539062 115.984375 C 79.53125 115.984375 85.234375 114.734375 90.398438 112.480469 C 90.671875 112.367188 90.984375 112.449219 91.164062 112.683594 L 92 113.789062 L 100.089844 124.4375 C 100.332031 124.753906 100.226562 125.210938 99.875 125.394531 C 99.832031 125.417969 99.789062 125.441406 99.75 125.460938 C 99.691406 125.492188 99.632812 125.519531 99.578125 125.550781 C 97.738281 126.476562 95.84375 127.308594 93.898438 128.039062 C 92.058594 128.730469 90.175781 129.332031 88.253906 129.832031 C 87.988281 129.902344 87.792969 130.136719 87.773438 130.410156 L 86.882812 143.203125 C 86.878906 143.214844 86.878906 143.226562 86.878906 143.238281 C 86.871094 145.394531 85.125 147.144531 82.96875 147.144531 L 64.105469 147.144531 C 61.953125 147.144531 60.203125 145.394531 60.195312 143.238281 C 60.195312 143.226562 60.195312 143.214844 60.195312 143.203125 L 59.300781 130.410156 C 59.285156 130.136719 59.089844 129.902344 58.824219 129.832031 C 53.652344 128.480469 48.765625 126.429688 44.261719 123.785156 C 44.023438 123.644531 43.722656 123.671875 43.515625 123.851562 L 33.855469 132.269531 C 33.847656 132.277344 33.839844 132.285156 33.832031 132.292969 C 32.304688 133.8125 29.835938 133.808594 28.3125 132.28125 L 20.183594 124.132812 L 14.976562 118.910156 C 13.453125 117.386719 13.445312 114.910156 14.964844 113.378906 C 14.96875 113.371094 14.976562 113.363281 14.984375 113.355469 L 23.382812 103.671875 C 23.5625 103.464844 23.589844 103.164062 23.453125 102.921875 C 20.8125 98.410156 18.769531 93.511719 17.414062 88.332031 C 17.347656 88.0625 17.113281 87.867188 16.839844 87.847656 L 4.074219 86.957031 C 4.066406 86.953125 4.054688 86.953125 4.042969 86.953125 C 1.890625 86.945312 0.148438 85.195312 0.148438 83.035156 L 0.148438 64.125 C 0.148438 61.964844 1.890625 60.214844 4.042969 60.207031 C 4.054688 60.207031 4.066406 60.207031 4.074219 60.203125 L 16.839844 59.3125 C 17.113281 59.292969 17.347656 59.097656 17.414062 58.832031 C 18.769531 53.648438 20.8125 48.75 23.453125 44.234375 C 23.589844 43.996094 23.5625 43.695312 23.382812 43.488281 L 21.96875 41.855469 L 14.984375 33.804688 C 14.976562 33.796875 14.96875 33.789062 14.964844 33.78125 C 13.445312 32.25 13.453125 29.773438 14.976562 28.25 L 20.183594 23.027344 L 28.3125 14.878906 C 29.835938 13.351562 32.304688 13.347656 33.832031 14.867188 C 33.839844 14.875 33.847656 14.882812 33.855469 14.890625 L 43.515625 23.308594 C 43.722656 23.488281 44.023438 23.515625 44.261719 23.375 C 48.152344 21.09375 52.328125 19.25 56.726562 17.917969 C 57.421875 17.707031 58.117188 17.511719 58.824219 17.328125 C 59.089844 17.257812 59.285156 17.023438 59.300781 16.75 L 59.433594 14.855469 L 59.546875 13.269531 L 59.875 8.53125 L 60.195312 3.957031 C 60.195312 3.945312 60.195312 3.933594 60.195312 3.921875 C 60.203125 1.761719 61.953125 0.0195312 64.105469 0.0195312 " fill-opacity="1" fill-rule="nonzero"/></g><g clip-path="url(#5ff9becb52)"><g transform="matrix(1, 0, 0, 1, 50, 45)"><g clip-path="url(#3f6900a5a5)"><g fill="#ffffff" fill-opacity="1"><g transform="translate(0.31222, 42.649096)"><g><path d="M 26.21875 -29.96875 C 22.78125 -31.875 19.789062 -32.828125 17.25 -32.828125 C 15.53125 -32.828125 14.191406 -32.484375 13.234375 -31.796875 C 12.285156 -31.117188 11.8125 -30.097656 11.8125 -28.734375 C 11.8125 -27.484375 12.5 -26.382812 13.875 -25.4375 C 15.257812 -24.488281 17.097656 -23.582031 19.390625 -22.71875 C 21.253906 -22.039062 22.847656 -21.257812 24.171875 -20.375 C 25.492188 -19.5 26.59375 -18.289062 27.46875 -16.75 C 28.351562 -15.21875 28.796875 -13.269531 28.796875 -10.90625 C 28.796875 -8.863281 28.265625 -6.972656 27.203125 -5.234375 C 26.148438 -3.492188 24.601562 -2.113281 22.5625 -1.09375 C 20.519531 -0.0703125 18.082031 0.4375 15.25 0.4375 C 12.882812 0.4375 10.539062 0.0859375 8.21875 -0.609375 C 5.894531 -1.316406 3.726562 -2.382812 1.71875 -3.8125 L 5.15625 -9.890625 C 6.519531 -8.878906 8.078125 -8.050781 9.828125 -7.40625 C 11.585938 -6.769531 13.164062 -6.453125 14.5625 -6.453125 C 16.207031 -6.453125 17.640625 -6.800781 18.859375 -7.5 C 20.078125 -8.195312 20.6875 -9.332031 20.6875 -10.90625 C 20.6875 -12.945312 18.769531 -14.71875 14.9375 -16.21875 C 12.675781 -17.113281 10.789062 -17.972656 9.28125 -18.796875 C 7.78125 -19.617188 6.484375 -20.800781 5.390625 -22.34375 C 4.304688 -23.882812 3.765625 -25.820312 3.765625 -28.15625 C 3.765625 -31.550781 4.878906 -34.285156 7.109375 -36.359375 C 9.347656 -38.441406 12.332031 -39.570312 16.0625 -39.75 C 19 -39.75 21.453125 -39.414062 23.421875 -38.75 C 25.390625 -38.09375 27.304688 -37.15625 29.171875 -35.9375 Z M 26.21875 -29.96875 "/></g></g></g><g clip-path="url(#a86b52df6d)"><g fill="#ffffff" fill-opacity="1"><g transform="translate(25.664481, 42.649096)"><g><path d="M 20.203125 -24.609375 C 22.421875 -24.609375 24.269531 -23.941406 25.75 -22.609375 C 27.238281 -21.285156 28.003906 -19.601562 28.046875 -17.5625 L 28.046875 0 L 20.515625 0 L 20.515625 -14.765625 C 20.410156 -17.054688 19.265625 -18.203125 17.078125 -18.203125 C 15.359375 -18.203125 13.976562 -17.394531 12.9375 -15.78125 C 11.90625 -14.175781 11.390625 -12.101562 11.390625 -9.5625 L 11.390625 0 L 3.875 0 L 3.875 -42.390625 L 11.234375 -42.390625 L 11.234375 -19.765625 C 12.085938 -21.273438 13.273438 -22.457031 14.796875 -23.3125 C 16.316406 -24.175781 18.117188 -24.609375 20.203125 -24.609375 Z M 20.203125 -24.609375 "/></g></g></g></g><g fill="#ffffff" fill-opacity="1"><g transform="translate(51.6076, 42.649096)"><g><path d="M 11.234375 -18.109375 C 11.867188 -19.359375 12.75 -20.484375 13.875 -21.484375 C 15.007812 -22.484375 16.164062 -23.257812 17.34375 -23.8125 C 18.53125 -24.375 19.460938 -24.65625 20.140625 -24.65625 L 19.765625 -17.140625 C 19.554688 -17.171875 19.253906 -17.1875 18.859375 -17.1875 C 17.347656 -17.1875 16.019531 -16.789062 14.875 -16 C 13.726562 -15.21875 12.847656 -14.207031 12.234375 -12.96875 C 11.628906 -11.738281 11.328125 -10.476562 11.328125 -9.1875 L 11.328125 0 L 3.875 0 L 3.875 -23.46875 L 10.640625 -23.46875 Z M 11.234375 -18.109375 "/></g></g></g><g fill="#ffffff" fill-opacity="1"><g transform="translate(67.667212, 42.649096)"><g><path d="M 15.578125 -5.75 C 17.078125 -5.75 18.632812 -6.269531 20.25 -7.3125 L 23.578125 -1.71875 C 22.296875 -1 20.9375 -0.425781 19.5 0 C 18.0625 0.425781 16.703125 0.640625 15.421875 0.640625 C 12.628906 0.640625 10.21875 0.113281 8.1875 -0.9375 C 6.164062 -2 4.632812 -3.484375 3.59375 -5.390625 C 2.5625 -7.304688 2.046875 -9.503906 2.046875 -11.984375 C 2.046875 -14.273438 2.644531 -16.382812 3.84375 -18.3125 C 5.039062 -20.25 6.675781 -21.78125 8.75 -22.90625 C 10.832031 -24.039062 13.109375 -24.609375 15.578125 -24.609375 C 18.941406 -24.609375 21.707031 -23.617188 23.875 -21.640625 C 26.039062 -19.671875 27.445312 -16.863281 28.09375 -13.21875 L 10.90625 -7.734375 C 12.050781 -6.410156 13.609375 -5.75 15.578125 -5.75 Z M 14.984375 -18.75 C 13.304688 -18.75 11.960938 -18.175781 10.953125 -17.03125 C 9.953125 -15.882812 9.453125 -14.34375 9.453125 -12.40625 L 9.453125 -11.921875 L 19.765625 -15.421875 C 19.015625 -17.640625 17.421875 -18.75 14.984375 -18.75 Z M 14.984375 -18.75 "/></g></g></g><g fill="#ffffff" fill-opacity="1"><g transform="translate(91.408032, 42.649096)"><g><path d="M 15.578125 -5.75 C 17.078125 -5.75 18.632812 -6.269531 20.25 -7.3125 L 23.578125 -1.71875 C 22.296875 -1 20.9375 -0.425781 19.5 0 C 18.0625 0.425781 16.703125 0.640625 15.421875 0.640625 C 12.628906 0.640625 10.21875 0.113281 8.1875 -0.9375 C 6.164062 -2 4.632812 -3.484375 3.59375 -5.390625 C 2.5625 -7.304688 2.046875 -9.503906 2.046875 -11.984375 C 2.046875 -14.273438 2.644531 -16.382812 3.84375 -18.3125 C 5.039062 -20.25 6.675781 -21.78125 8.75 -22.90625 C 10.832031 -24.039062 13.109375 -24.609375 15.578125 -24.609375 C 18.941406 -24.609375 21.707031 -23.617188 23.875 -21.640625 C 26.039062 -19.671875 27.445312 -16.863281 28.09375 -13.21875 L 10.90625 -7.734375 C 12.050781 -6.410156 13.609375 -5.75 15.578125 -5.75 Z M 14.984375 -18.75 C 13.304688 -18.75 11.960938 -18.175781 10.953125 -17.03125 C 9.953125 -15.882812 9.453125 -14.34375 9.453125 -12.40625 L 9.453125 -11.921875 L 19.765625 -15.421875 C 19.015625 -17.640625 17.421875 -18.75 14.984375 -18.75 Z M 14.984375 -18.75 "/></g></g></g><g fill="#ffffff" fill-opacity="1"><g transform="translate(115.148852, 42.649096)"><g/></g></g><g fill="#ffffff" fill-opacity="1"><g transform="translate(126.642708, 42.649096)"><g><path d="M 37.171875 -3.96875 C 36.566406 -3.332031 35.484375 -2.660156 33.921875 -1.953125 C 32.367188 -1.253906 30.648438 -0.679688 28.765625 -0.234375 C 26.890625 0.210938 25.179688 0.4375 23.640625 0.4375 C 19.441406 0.4375 15.757812 -0.375 12.59375 -2 C 9.425781 -3.632812 6.984375 -5.894531 5.265625 -8.78125 C 3.546875 -11.664062 2.6875 -14.953125 2.6875 -18.640625 C 2.6875 -23.253906 3.597656 -27.164062 5.421875 -30.375 C 7.253906 -33.582031 9.707031 -35.984375 12.78125 -37.578125 C 15.863281 -39.171875 19.265625 -39.96875 22.984375 -39.96875 C 25.390625 -39.96875 27.644531 -39.695312 29.75 -39.15625 C 31.863281 -38.625 33.726562 -37.925781 35.34375 -37.0625 L 32.828125 -29.8125 C 31.785156 -30.382812 30.359375 -30.910156 28.546875 -31.390625 C 26.742188 -31.878906 25.234375 -32.125 24.015625 -32.125 C 19.710938 -32.125 16.425781 -31.046875 14.15625 -28.890625 C 11.882812 -26.742188 10.75 -23.5625 10.75 -19.34375 C 10.75 -16.90625 11.300781 -14.78125 12.40625 -12.96875 C 13.519531 -11.164062 15.066406 -9.78125 17.046875 -8.8125 C 19.035156 -7.84375 21.300781 -7.359375 23.84375 -7.359375 C 26.28125 -7.359375 28.09375 -7.695312 29.28125 -8.375 L 29.28125 -13.15625 L 22.453125 -13.15625 L 22.453125 -20.6875 L 37.171875 -20.6875 Z M 37.171875 -3.96875 "/></g></g></g><g fill="#ffffff" fill-opacity="1"><g transform="translate(161.609918, 42.649096)"><g><path d="M 27.5 -23.46875 L 27.5 0 L 20.6875 0 L 20.140625 -3.765625 C 19.316406 -2.253906 18.160156 -1.0625 16.671875 -0.1875 C 15.191406 0.6875 13.445312 1.125 11.4375 1.125 C 9.289062 1.125 7.5 0.460938 6.0625 -0.859375 C 4.632812 -2.179688 3.90625 -3.863281 3.875 -5.90625 L 3.875 -23.46875 L 11.390625 -23.46875 L 11.390625 -8.703125 C 11.492188 -6.410156 12.550781 -5.265625 14.5625 -5.265625 C 16.207031 -5.265625 17.519531 -6.066406 18.5 -7.671875 C 19.488281 -9.285156 19.984375 -11.363281 19.984375 -13.90625 L 19.984375 -23.46875 Z M 27.5 -23.46875 "/></g></g></g><g fill="#ffffff" fill-opacity="1"><g transform="translate(187.015882, 42.649096)"><g><path d="M 11.234375 -18.109375 C 11.867188 -19.359375 12.75 -20.484375 13.875 -21.484375 C 15.007812 -22.484375 16.164062 -23.257812 17.34375 -23.8125 C 18.53125 -24.375 19.460938 -24.65625 20.140625 -24.65625 L 19.765625 -17.140625 C 19.554688 -17.171875 19.253906 -17.1875 18.859375 -17.1875 C 17.347656 -17.1875 16.019531 -16.789062 14.875 -16 C 13.726562 -15.21875 12.847656 -14.207031 12.234375 -12.96875 C 11.628906 -11.738281 11.328125 -10.476562 11.328125 -9.1875 L 11.328125 0 L 3.875 0 L 3.875 -23.46875 L 10.640625 -23.46875 Z M 11.234375 -18.109375 "/></g></g></g><g fill="#ffffff" fill-opacity="1"><g transform="translate(203.075486, 42.649096)"><g><path d="M 27.5 -23.46875 L 27.5 0 L 20.6875 0 L 20.140625 -3.765625 C 19.316406 -2.253906 18.160156 -1.0625 16.671875 -0.1875 C 15.191406 0.6875 13.445312 1.125 11.4375 1.125 C 9.289062 1.125 7.5 0.460938 6.0625 -0.859375 C 4.632812 -2.179688 3.90625 -3.863281 3.875 -5.90625 L 3.875 -23.46875 L 11.390625 -23.46875 L 11.390625 -8.703125 C 11.492188 -6.410156 12.550781 -5.265625 14.5625 -5.265625 C 16.207031 -5.265625 17.519531 -6.066406 18.5 -7.671875 C 19.488281 -9.285156 19.984375 -11.363281 19.984375 -13.90625 L 19.984375 -23.46875 Z M 27.5 -23.46875 "/></g></g></g></g></g></g><g transform="matrix(1, 0, 0, 1, 91, 92)"><g clip-path="url(#56d4107ef3)"><g fill="#ffffff" fill-opacity="1"><g transform="translate(0.427122, 16.20334)"><g><path d="M 6.171875 -11.296875 C 7.148438 -11.296875 8 -11.132812 8.71875 -10.8125 C 9.445312 -10.488281 10.003906 -10.023438 10.390625 -9.421875 C 10.773438 -8.816406 10.96875 -8.101562 10.96875 -7.28125 C 10.96875 -6.457031 10.773438 -5.742188 10.390625 -5.140625 C 10.003906 -4.535156 9.445312 -4.070312 8.71875 -3.75 C 8 -3.425781 7.148438 -3.265625 6.171875 -3.265625 L 3.609375 -3.265625 L 3.609375 0 L 1.515625 0 L 1.515625 -11.296875 Z M 6.0625 -5.03125 C 6.976562 -5.03125 7.671875 -5.222656 8.140625 -5.609375 C 8.617188 -6.003906 8.859375 -6.5625 8.859375 -7.28125 C 8.859375 -8 8.617188 -8.550781 8.140625 -8.9375 C 7.671875 -9.320312 6.976562 -9.515625 6.0625 -9.515625 L 3.609375 -9.515625 L 3.609375 -5.03125 Z M 6.0625 -5.03125 "/></g></g></g><g fill="#ffffff" fill-opacity="1"><g transform="translate(25.055351, 16.20334)"><g><path d="M 1.515625 -11.296875 L 3.609375 -11.296875 L 3.609375 -1.78125 L 9.515625 -1.78125 L 9.515625 0 L 1.515625 0 Z M 1.515625 -11.296875 "/></g></g></g><g fill="#ffffff" fill-opacity="1"><g transform="translate(47.634172, 16.20334)"><g><path d="M 8.84375 -2.609375 L 3.203125 -2.609375 L 2.078125 0 L -0.078125 0 L 5 -11.296875 L 7.0625 -11.296875 L 12.171875 0 L 9.96875 0 Z M 8.15625 -4.265625 L 6.015625 -9.203125 L 3.90625 -4.265625 Z M 8.15625 -4.265625 "/></g></g></g><g fill="#ffffff" fill-opacity="1"><g transform="translate(72.633548, 16.20334)"><g><path d="M 5.015625 0.15625 C 4.148438 0.15625 3.3125 0.0351562 2.5 -0.203125 C 1.6875 -0.453125 1.039062 -0.78125 0.5625 -1.1875 L 1.296875 -2.828125 C 1.753906 -2.460938 2.316406 -2.160156 2.984375 -1.921875 C 3.660156 -1.691406 4.335938 -1.578125 5.015625 -1.578125 C 5.859375 -1.578125 6.484375 -1.710938 6.890625 -1.984375 C 7.304688 -2.253906 7.515625 -2.609375 7.515625 -3.046875 C 7.515625 -3.367188 7.398438 -3.632812 7.171875 -3.84375 C 6.941406 -4.0625 6.648438 -4.226562 6.296875 -4.34375 C 5.941406 -4.457031 5.457031 -4.59375 4.84375 -4.75 C 3.976562 -4.945312 3.28125 -5.148438 2.75 -5.359375 C 2.21875 -5.566406 1.757812 -5.882812 1.375 -6.3125 C 1 -6.75 0.8125 -7.34375 0.8125 -8.09375 C 0.8125 -8.707031 0.976562 -9.269531 1.3125 -9.78125 C 1.65625 -10.300781 2.164062 -10.707031 2.84375 -11 C 3.53125 -11.300781 4.367188 -11.453125 5.359375 -11.453125 C 6.046875 -11.453125 6.722656 -11.363281 7.390625 -11.1875 C 8.054688 -11.019531 8.632812 -10.773438 9.125 -10.453125 L 8.453125 -8.828125 C 7.960938 -9.117188 7.445312 -9.335938 6.90625 -9.484375 C 6.363281 -9.640625 5.84375 -9.71875 5.34375 -9.71875 C 4.507812 -9.71875 3.890625 -9.578125 3.484375 -9.296875 C 3.085938 -9.015625 2.890625 -8.644531 2.890625 -8.1875 C 2.890625 -7.863281 3.003906 -7.597656 3.234375 -7.390625 C 3.460938 -7.179688 3.753906 -7.019531 4.109375 -6.90625 C 4.472656 -6.789062 4.957031 -6.65625 5.5625 -6.5 C 6.40625 -6.3125 7.09375 -6.109375 7.625 -5.890625 C 8.164062 -5.679688 8.628906 -5.363281 9.015625 -4.9375 C 9.398438 -4.507812 9.59375 -3.929688 9.59375 -3.203125 C 9.59375 -2.578125 9.421875 -2.007812 9.078125 -1.5 C 8.742188 -1 8.226562 -0.597656 7.53125 -0.296875 C 6.84375 0.00390625 6.003906 0.15625 5.015625 0.15625 Z M 5.015625 0.15625 "/></g></g></g><g fill="#ffffff" fill-opacity="1"><g transform="translate(95.696482, 16.20334)"><g><path d="M 3.8125 -9.515625 L 0.0625 -9.515625 L 0.0625 -11.296875 L 9.65625 -11.296875 L 9.65625 -9.515625 L 5.90625 -9.515625 L 5.90625 0 L 3.8125 0 Z M 3.8125 -9.515625 "/></g></g></g><g fill="#ffffff" fill-opacity="1"><g transform="translate(118.323711, 16.20334)"><g><path d="M 1.515625 -11.296875 L 3.609375 -11.296875 L 3.609375 0 L 1.515625 0 Z M 1.515625 -11.296875 "/></g></g></g><g fill="#ffffff" fill-opacity="1"><g transform="translate(136.384139, 16.20334)"><g><path d="M 6.75 0.15625 C 5.601562 0.15625 4.570312 -0.09375 3.65625 -0.59375 C 2.738281 -1.09375 2.015625 -1.78125 1.484375 -2.65625 C 0.960938 -3.539062 0.703125 -4.539062 0.703125 -5.65625 C 0.703125 -6.757812 0.96875 -7.75 1.5 -8.625 C 2.03125 -9.507812 2.753906 -10.203125 3.671875 -10.703125 C 4.585938 -11.203125 5.617188 -11.453125 6.765625 -11.453125 C 7.691406 -11.453125 8.535156 -11.289062 9.296875 -10.96875 C 10.054688 -10.644531 10.703125 -10.179688 11.234375 -9.578125 L 9.875 -8.296875 C 9.0625 -9.179688 8.054688 -9.625 6.859375 -9.625 C 6.085938 -9.625 5.394531 -9.453125 4.78125 -9.109375 C 4.164062 -8.773438 3.6875 -8.304688 3.34375 -7.703125 C 3 -7.097656 2.828125 -6.414062 2.828125 -5.65625 C 2.828125 -4.882812 3 -4.195312 3.34375 -3.59375 C 3.6875 -3 4.164062 -2.53125 4.78125 -2.1875 C 5.394531 -1.84375 6.085938 -1.671875 6.859375 -1.671875 C 8.054688 -1.671875 9.0625 -2.117188 9.875 -3.015625 L 11.234375 -1.734375 C 10.703125 -1.117188 10.050781 -0.648438 9.28125 -0.328125 C 8.519531 -0.00390625 7.675781 0.15625 6.75 0.15625 Z M 6.75 0.15625 "/></g></g></g></g></g></g></g></g></svg>